
<svg width="64" height="64" viewBox="0 0 64 64" fill="none" xmlns="http://www.w3.org/2000/svg">
<g clip-path="url(#clip0_347_2625)">
<path fill-rule="evenodd" clip-rule="evenodd" d="M0.213379 32.1733C0.213379 14.5595 14.4929 0.279953 32.1067 0.279953C49.7218 0.279953 64 14.5595 64 32.1733C64 49.787 49.7205 64.0666 32.1067 64.0666C14.4929 64.0666 0.213379 49.787 0.213379 32.1733ZM3.24803 32.1733C3.24803 48.1109 16.1677 61.0319 32.1067 61.0319C48.0457 61.0319 60.9653 48.1109 60.9653 32.1733C60.9653 16.2356 48.0457 3.31461 32.1067 3.31461C16.169 3.31461 3.24803 16.2356 3.24803 32.1733ZM53.1713 50.0841C52.7935 48.1109 52.1149 46.0123 51.4926 44.8791C51.4419 44.8412 51.3805 44.794 51.309 44.7391L51.3084 44.7387C50.7535 44.3123 49.5937 43.4212 48.1276 42.8112C50.3543 40.1274 51.3556 37.4973 51.4926 36.4166C51.2788 37.4999 49.9612 40.0313 47.4387 42.5538C46.9112 42.381 46.3529 42.2567 45.7767 42.2042C45.0251 41.3387 44.0737 40.6011 43.0007 39.9891C44.8548 37.7778 45.2569 35.9339 45.1634 35.14C45.0213 33.9313 42.0801 32.4562 40.8201 31.9108C41.025 34.0657 40.3041 36.3321 38.9647 38.3808C36.6894 37.7854 34.2962 37.5934 32.2386 37.7957C25.2653 38.4782 22.7262 42.3131 22.7428 44.7216C23.2306 40.7548 28.5163 38.8354 32.341 38.5857C34.2578 38.4602 36.4487 38.5678 38.5614 38.9673C34.8443 44.0801 27.2768 47.5603 20.8977 43.9034C16.0474 41.1223 16.2766 35.4858 19.68 29.9965C19.9476 30.0259 20.2229 30.0528 20.5084 30.0746C25.1065 30.4216 31.0324 29.1732 36.482 25.9631C40.9968 23.3036 45.1429 19.4431 45.6743 17.5928C47.2595 14.5761 43.1544 9.16238 32.3781 14.1766C26.0873 17.1037 20.3407 22.9566 17.4763 28.9248C13.6491 28.1322 12.5466 25.9785 12.3891 24.5111C12.3891 26.4906 13.5159 28.5457 17.1921 29.5407C14.5083 35.56 14.8348 41.5986 20.5699 44.7754C21.263 45.1594 21.9854 45.4771 22.7276 45.7342C23.174 48.127 26.7476 50.5399 32.4601 50.2557C36.1145 50.0739 39.1427 49.1968 41.6281 47.9586C42.1825 48.6423 42.9764 49.1622 43.8458 49.335C46.9752 49.9573 48.6974 46.8062 46.9688 44.0916C47.0943 43.9649 47.2172 43.8381 47.3363 43.71C50.312 45.3068 52.4555 48.7537 53.1713 50.0841ZM45.6743 17.5928C45.2453 18.5135 42.8867 21.931 36.3232 25.4676C32.7559 27.3895 26.2077 29.2846 20.616 29.2321C20.4687 29.2308 20.324 29.2269 20.1819 29.2231C23.0821 24.9349 27.8761 20.8234 33.6535 18.3355C44.8599 13.5095 46.2018 15.1011 45.6743 17.5928ZM38.6562 43.7305C34.8824 46.2005 28.2572 47.6493 22.7283 45.7344C23.699 47.1863 25.4014 49.2198 31.3602 49.1558C35.1554 49.1148 38.3809 48.2672 41.0647 47.0187C40.9571 46.7562 40.8841 46.4861 40.8508 46.212C40.719 45.1224 40.943 43.2132 43.5231 42.4245C44.2453 42.203 44.9611 42.1441 45.6512 42.1927C44.8612 41.4168 43.874 40.7766 42.7651 40.2644C41.7933 41.3656 40.4629 42.5474 38.6562 43.7305ZM43.5731 48.796C42.9111 48.6359 42.2581 48.3337 41.7651 47.8894C43.8804 46.8151 45.5975 45.4796 46.9662 44.0942C48.5079 47.1032 45.9995 49.385 43.5731 48.796ZM41.1121 46.997C41.0096 46.7588 40.9443 46.4976 40.9277 46.2146C40.8406 44.7741 42.0199 43.0173 43.8471 42.8931C44.8138 42.8278 45.7319 43.0109 46.5911 43.3618C45.1122 44.6922 43.2914 45.9764 41.1121 46.997ZM16.7017 15.4391C20.7504 12.6017 25.3639 12.8578 25.2742 15.3124C25.272 17.9633 19.855 24.5124 10.7041 24.4752C10.5235 24.474 7.85379 22.2652 7.20844 21.552C15.484 24.8568 24.771 19.3458 25.273 15.3149C24.9298 12.5671 20.0948 14.6555 18.3739 15.6453C14.8898 17.6505 13.0908 19.9104 12.4416 22.5251C12.6491 19.9104 14.233 17.169 16.7017 15.4391ZM29.6098 30.7097C32.9646 28.5458 36.8418 27.0989 42.0301 27.0989C51.3095 27.0989 52.3492 33.2219 51.4952 36.4154C51.7474 32.6893 48.2531 29.0695 39.7471 30.7955C33.3884 32.0862 28.9184 35.7354 27.0323 37.3104C27.1987 34.423 28.9004 31.1668 29.6098 30.7097Z" fill="#ECC07B"/>
</g>
<defs>
<clipPath id="clip0_347_2625">
<rect width="64" height="64" fill="white"/>
</clipPath>
</defs>
</svg>
